<svg xmlns="http://www.w3.org/2000/svg" xmlns:xlink="http://www.w3.org/1999/xlink" width="198.45" height="33.075" viewBox="0 0 1500 250">
  <defs>
    <style>
      .cls-1 {
        fill: #015832;
        fill-rule: evenodd;
        filter: url(#filter);
      }
    </style>
    <filter id="filter" x="-25" y="15" width="1544" height="237" filterUnits="userSpaceOnUse">
      <feOffset result="offset" dx="-0.262" dy="14.998" in="SourceAlpha"/>
      <feGaussianBlur result="blur" stdDeviation="4.899"/>
      <feFlood result="flood" flood-opacity="0.54"/>
      <feComposite result="composite" operator="in" in2="blur"/>
      <feBlend result="blend" in="SourceGraphic"/>
    </filter>
  </defs>
  <path id="What_a_food_" data-name="What a food!" class="cls-1" d="M82.933,207.475l35.6-134.063,35.717,134.063h38.409L236.2,28.153H199.749L172.227,153.409,140.791,28.153H97.734L64.952,151.33,37.919,28.153H0.856L43.668,207.475H82.933ZM254.3,28.153V207.475h34.372V142.4q0-16.391,3.119-24.77a24,24,0,0,1,9.847-12.538,28.49,28.49,0,0,1,15.29-4.159,22.241,22.241,0,0,1,12.416,3.242,17.022,17.022,0,0,1,6.911,8.745q1.954,5.5,1.957,25.932v68.622h34.372V131.269q0-17.49-1.774-25.809a40.817,40.817,0,0,0-6.605-15.168q-4.833-6.849-14.373-11.253a50.493,50.493,0,0,0-21.406-4.4q-23.118,0-39.754,19.449V28.153H254.3Zm187.15,76.389q5.137-3.606,14.312-3.608,13.578,0,18.47,4.22t4.893,14.128v3.425q-9.3,3.917-33.393,8.44-17.86,3.426-27.339,8.012a34.366,34.366,0,0,0-14.74,13.211A36.938,36.938,0,0,0,398.4,172q0,16.636,11.559,27.522t31.62,10.887a53.976,53.976,0,0,0,21.406-4.281,61.97,61.97,0,0,0,18.837-12.844q0.368,0.981,1.223,4.037,1.956,6.727,3.3,10.152h34a73.643,73.643,0,0,1-6.177-17.431q-1.651-8.133-1.651-25.259l0.367-40.121q0-22.385-4.587-30.763T492.462,80.078q-11.256-5.441-34.25-5.443-25.32,0-38.164,9.052t-18.1,27.889l31.192,5.627Q436.315,108.152,441.454,104.542Zm37.675,47.4q0,12.356-1.345,16.758a21.533,21.533,0,0,1-8.2,11.375,29.759,29.759,0,0,1-17.736,6.116,18.783,18.783,0,0,1-13.7-5.259,16.851,16.851,0,0,1-5.382-12.477q0-7.34,6.727-12.11,4.4-2.935,18.715-5.994a214.324,214.324,0,0,0,20.917-5.259v6.85ZM582.857,77.571V31.7L548.363,51.761v25.81h-15.78v27.4h15.78V161.6q0,18.228,1.1,24.219,1.346,8.44,4.832,13.394t10.948,8.074A43.07,43.07,0,0,0,582,210.411a68.336,68.336,0,0,0,27.155-5.138l-2.936-26.666q-9.054,3.3-13.822,3.3a9.687,9.687,0,0,1-5.81-1.712,7.535,7.535,0,0,1-3.058-4.343q-0.675-2.628-.673-18.531V104.971h23.485v-27.4H582.857ZM733.8,104.542q5.138-3.606,14.312-3.608,13.577,0,18.47,4.22t4.893,14.128v3.425q-9.3,3.917-33.394,8.44-17.861,3.426-27.338,8.012A34.354,34.354,0,0,0,696,152.37,36.938,36.938,0,0,0,690.743,172q0,16.636,11.56,27.522t31.62,10.887a53.979,53.979,0,0,0,21.406-4.281,61.97,61.97,0,0,0,18.837-12.844q0.367,0.981,1.223,4.037,1.956,6.727,3.3,10.152h34a73.643,73.643,0,0,1-6.177-17.431q-1.651-8.133-1.652-25.259l0.367-40.121q0-22.385-4.587-30.763t-15.84-13.822q-11.256-5.441-34.25-5.443-25.32,0-38.164,9.052t-18.1,27.889l31.191,5.627Q728.662,108.152,733.8,104.542Zm37.675,47.4q0,12.356-1.346,16.758a21.525,21.525,0,0,1-8.2,11.375,29.759,29.759,0,0,1-17.737,6.116,18.782,18.782,0,0,1-13.7-5.259,16.852,16.852,0,0,1-5.383-12.477q0-7.34,6.728-12.11,4.4-2.935,18.715-5.994a214.4,214.4,0,0,0,20.917-5.259v6.85Zm122.2-47.338h19.082V207.475h34.372V104.6h25.687V77.571H947.127V68.4q0-9.908,3.242-13.394t10.7-3.486a67.967,67.967,0,0,1,15.779,1.957L981.5,29.5a95.677,95.677,0,0,0-28.745-4.4q-14.312,0-23.669,5.076t-12.844,13.15q-3.486,8.073-3.486,24.464v9.786H893.673V104.6Zm98.957,74.065a55.363,55.363,0,0,0,24.65,23.669,75.414,75.414,0,0,0,34.06,8.073q28.875,0,47.89-19.388t19.02-48.867q0-29.234-18.83-48.378T1051.1,74.635a71,71,0,0,0-34.56,8.44,57.963,57.963,0,0,0-23.91,24.464,70.285,70.285,0,0,0-8.44,33.149Q984.19,163.073,992.63,178.669Zm35.96-65.748a29.992,29.992,0,0,1,45.2,0q9.105,10.275,9.11,29.357,0,19.572-9.11,29.847a29.994,29.994,0,0,1-45.2,0q-9.165-10.275-9.17-29.6T1028.59,112.921Zm117.06,65.748a55.378,55.378,0,0,0,24.65,23.669,75.455,75.455,0,0,0,34.07,8.073q28.86,0,47.89-19.388,19.005-19.386,19.02-48.867,0-29.234-18.84-48.378t-48.32-19.143a70.935,70.935,0,0,0-34.55,8.44,57.945,57.945,0,0,0-23.92,24.464,70.356,70.356,0,0,0-8.44,33.149Q1137.21,163.073,1145.65,178.669Zm35.97-65.748a29.981,29.981,0,0,1,45.19,0q9.12,10.275,9.12,29.357,0,19.572-9.12,29.847a29.983,29.983,0,0,1-45.19,0q-9.18-10.275-9.18-29.6T1181.62,112.921Zm235.71-84.768h-34.38V92.739q-15.9-18.1-37.67-18.1-23.73,0-39.26,17.186t-15.54,50.213q0,32.292,15.96,50.335t38.35,18.042a48.227,48.227,0,0,0,21.84-5.443,51.6,51.6,0,0,0,18.77-16.575v19.082h31.93V28.153Zm-83.49,82.5q8.265-9.723,20.49-9.724a25.543,25.543,0,0,1,20.67,9.847q8.085,9.847,8.08,32.231,0,20.063-8.32,30.152t-20.18,10.092q-14.925,0-23.24-13.456-5.76-9.294-5.75-30.09Q1325.59,120.384,1333.84,110.658Zm150.27,50.58,8.81-91.006V28.153h-37.18V70.232l8.92,91.006h19.45Zm7.47,46.237V173.1H1457.2v34.372h34.38Z"/>
</svg>
