<?xml version="1.0" encoding="UTF-8"?>
<svg id="Capa_1" xmlns="http://www.w3.org/2000/svg" version="1.1" viewBox="0 0 87.6 69.5">
  <!-- Generator: Adobe Illustrator 29.0.0, SVG Export Plug-In . SVG Version: 2.1.0 Build 186)  -->
  <defs>
    <style>
      .st0 {
        fill: #015832;
        fill-rule: evenodd;
      }

      .st1 {
        fill: #fff;
      }
    </style>
  </defs>
  <ellipse class="st1" cx="43.8" cy="34.8" rx="34.5" ry="33.7"/>
  <path id="What_a_food_" class="st0" d="M22.8,49.3l4.7-17.7,4.7,17.7h5.1l5.8-23.7h-4.8l-3.6,16.6-4.2-16.6h-5.7l-4.3,16.3-3.6-16.3h-4.9l5.7,23.7h5.2ZM49.8,31.7v-6.1l-4.6,2.7v3.4h-2.1v3.6h2.1v7.5c0,1.6,0,2.7.2,3.2.1.7.3,1.3.6,1.8.3.4.8.8,1.5,1.1.7.3,1.5.4,2.2.4,1.2,0,2.5-.2,3.6-.7l-.4-3.5c-.8.3-1.4.4-1.8.4s-.5,0-.8-.2c-.2-.1-.3-.3-.4-.6s0-1,0-2.5v-6.9h3.1v-3.6h-3.1ZM56.1,35.9h2.5v13.6h4.5v-13.6h3.4v-3.6h-3.4v-1.2c0-.9.1-1.5.4-1.8s.8-.5,1.4-.5,1.4,0,2.1.3l.6-3.2c-1.2-.4-2.5-.6-3.8-.6s-2.3.2-3.1.7c-.8.4-1.4,1-1.7,1.7s-.5,1.8-.5,3.2v1.3h-2.5v3.6h0ZM74.4,43.2l1.2-12v-5.6h-4.9v5.6l1.2,12h2.6ZM75.4,49.5v-4.6h-4.5v4.5s4.5,0,4.5,0Z"/>
</svg>